<?xml version="1.0" standalone="no"?><!DOCTYPE svg PUBLIC "-//W3C//DTD SVG 1.1//EN" "http://www.w3.org/Graphics/SVG/1.1/DTD/svg11.dtd"><svg t="1618473287650" class="icon" viewBox="0 0 1024 1024" version="1.1" xmlns="http://www.w3.org/2000/svg" p-id="4284" xmlns:xlink="http://www.w3.org/1999/xlink" width="200" height="200"><defs><style type="text/css"></style></defs><path d="M736.342319 1024H287.219512A170.009414 170.009414 0 0 1 117.648267 854.428755V169.571245A170.009414 170.009414 0 0 1 287.219512 0h449.122807A170.009414 170.009414 0 0 1 906.351733 169.571245V854.428755a170.009414 170.009414 0 0 1-170.009414 169.571245zM287.219512 65.28712a104.284125 104.284125 0 0 0-104.284125 104.284125V854.428755a104.284125 104.284125 0 0 0 104.284125 104.284125h449.122807a104.284125 104.284125 0 0 0 104.284125-104.284125V169.571245a104.284125 104.284125 0 0 0-104.284125-104.284125z" fill="#515151" p-id="4285"></path><path d="M512 809.735558m-90.26273 0a90.26273 90.26273 0 1 0 180.52546 0 90.26273 90.26273 0 1 0-180.52546 0Z" fill="#515151" p-id="4286"></path><path d="M309.127942 171.32392h405.305948" fill="#FFFFFF" p-id="4287"></path><path d="M714.43389 193.232349H309.127942a21.90843 21.90843 0 0 1 0-43.816859h405.305948a21.90843 21.90843 0 0 1 0 43.816859z" fill="#515151" p-id="4288"></path></svg>