<?xml version="1.0" standalone="no"?><!DOCTYPE svg PUBLIC "-//W3C//DTD SVG 1.1//EN" "http://www.w3.org/Graphics/SVG/1.1/DTD/svg11.dtd"><svg t="1618315044464" class="icon" viewBox="0 0 1027 1024" version="1.1" xmlns="http://www.w3.org/2000/svg" p-id="7539" xmlns:xlink="http://www.w3.org/1999/xlink" width="200.5859375" height="200"><defs><style type="text/css"></style></defs><path d="M32 256C19.2 256 6.4 249.6 0 236.8c-6.4-19.2 0-32 19.2-38.4l544-192c19.2-6.4 32 0 38.4 19.2s0 32-19.2 38.4L44.8 256C38.4 256 38.4 256 32 256z" p-id="7540"></path><path d="M544 1024l-448 0C76.8 1024 64 1011.2 64 992l0-768C64 204.8 76.8 192 96 192S128 204.8 128 224L128 960l384 0L512 64c0-19.2 12.8-32 32-32C563.2 32 576 44.8 576 64l0 928C576 1011.2 563.2 1024 544 1024z" p-id="7541"></path><path d="M928 1024l-384 0C524.8 1024 512 1011.2 512 992S524.8 960 544 960L896 960 896 416C896 396.8 908.8 384 928 384S960 396.8 960 416l0 576C960 1011.2 947.2 1024 928 1024z" p-id="7542"></path><path d="M992 448c-6.4 0-6.4 0-12.8 0l-448-192C512 249.6 505.6 230.4 512 211.2 518.4 192 537.6 185.6 556.8 192l448 192C1024 390.4 1030.4 409.6 1024 428.8 1017.6 441.6 1004.8 448 992 448z" p-id="7543"></path><path d="M384 384 256 384C236.8 384 224 371.2 224 352 224 332.8 236.8 320 256 320l128 0c19.2 0 32 12.8 32 32C416 371.2 403.2 384 384 384z" p-id="7544"></path><path d="M384 544 256 544C236.8 544 224 531.2 224 512S236.8 480 256 480l128 0c19.2 0 32 12.8 32 32S403.2 544 384 544z" p-id="7545"></path><path d="M800 544l-128 0C652.8 544 640 531.2 640 512s12.8-32 32-32l128 0C819.2 480 832 492.8 832 512S819.2 544 800 544z" p-id="7546"></path><path d="M800 704l-128 0c-19.2 0-32-12.8-32-32s12.8-32 32-32l128 0c19.2 0 32 12.8 32 32S819.2 704 800 704z" p-id="7547"></path><path d="M800 864l-128 0c-19.2 0-32-12.8-32-32s12.8-32 32-32l128 0c19.2 0 32 12.8 32 32S819.2 864 800 864z" p-id="7548"></path><path d="M384 1024c-19.2 0-32-12.8-32-32L352 704l-64 0 0 288C288 1011.2 275.2 1024 256 1024c-19.2 0-32-12.8-32-32l0-320C224 652.8 236.8 640 256 640l128 0c19.2 0 32 12.8 32 32l0 320C416 1011.2 403.2 1024 384 1024z" p-id="7549"></path></svg>