<?xml version="1.0" standalone="no"?><!DOCTYPE svg PUBLIC "-//W3C//DTD SVG 1.1//EN" "http://www.w3.org/Graphics/SVG/1.1/DTD/svg11.dtd"><svg t="1618280696370" class="icon" viewBox="0 0 1024 1024" version="1.1" xmlns="http://www.w3.org/2000/svg" p-id="3330" xmlns:xlink="http://www.w3.org/1999/xlink" width="200" height="200"><defs><style type="text/css"></style></defs><path d="M924.444444 827.733333c-14.222222-22.755556-36.977778-45.511111-59.733333-62.577778-31.288889-19.911111-68.266667-36.977778-113.777778-45.511111 0 0-39.822222-5.688889-73.955556-17.066667-59.733333-17.066667-62.577778-25.6-62.577778-25.6 0 0 0-2.844444-2.844444-2.844444 0-2.844444 0-14.222222 2.844444-39.822222 5.688889-68.266667 34.133333-102.4 62.577778-133.688889 8.533333-11.377778 14.222222-19.911111 19.911111-28.444444 11.377778-17.066667 22.755556-42.666667 25.6-56.888889 5.688889-19.911111 8.533333-34.133333 2.844444-48.355556-2.844444-8.533333-5.688889-14.222222-8.533333-17.066667 0 0 0-2.844444-2.844444-2.844444 0 0 0 0 0-5.688889 2.844444-17.066667 2.844444-31.288889 5.688889-45.511111 0-22.755556 2.844444-59.733333-2.844444-93.866667 0-5.688889-2.844444-11.377778-2.844444-19.911111-5.688889-22.755556-17.066667-45.511111-31.288889-59.733333 0 0 0 0 0 0-2.844444-2.844444-62.577778-65.422222-233.244444-79.644444-22.755556-2.844444-48.355556 0-68.266667 0l0 0c-5.688889 0-14.222222 0-19.911111 2.844444-17.066667 5.688889-22.755556 17.066667-22.755556 22.755556C335.644444 76.8 338.488889 85.333333 341.333333 91.022222c0 0 0 2.844444 0 2.844444 0 0 0 0 0 2.844444-2.844444 5.688889-11.377778 11.377778-17.066667 17.066667 0 0 0 0 0 0-2.844444 2.844444-45.511111 39.822222-48.355556 88.177778-5.688889 36.977778-5.688889 96.711111 0 133.688889 0 0 0 2.844444 0 2.844444 0 2.844444 0 5.688889 0 5.688889 0 0 0 0 0 0 0 0-2.844444 8.533333-5.688889 11.377778-2.844444 5.688889-5.688889 11.377778-5.688889 22.755556 0 0 0 0 0 0 0 2.844444 0 48.355556 28.444444 88.177778 5.688889 8.533333 14.222222 19.911111 22.755556 28.444444 28.444444 31.288889 54.044444 71.111111 59.733333 139.377778 2.844444 25.6 0 36.977778 0 39.822222 0 0 0 2.844444-2.844444 2.844444-5.688889 5.688889-2.844444 8.533333-51.2 19.911111-34.133333 8.533333-105.244444 28.444444-136.533333 42.666667C147.911111 768 105.244444 802.133333 96.711111 824.888889c-19.911111 48.355556-19.911111 71.111111-17.066667 93.866667 5.688889 31.288889 31.288889 36.977778 31.288889 36.977778L512 955.733333l0 0 233.244444 0 173.511111 0c17.066667 0 25.6-17.066667 28.444444-28.444444C947.2 893.155556 938.666667 853.333333 924.444444 827.733333zM887.466667 898.844444l-190.577778 0L512 898.844444l0 0L159.288889 898.844444c-25.6 0-28.444444-25.6-8.533333-59.733333 11.377778-22.755556 31.288889-36.977778 73.955556-56.888889 28.444444-14.222222 108.088889-28.444444 136.533333-34.133333 22.755556-5.688889 36.977778-14.222222 42.666667-19.911111 19.911111-14.222222 25.6-25.6 25.6-28.444444 5.688889-19.911111 5.688889-34.133333 2.844444-76.8-5.688889-59.733333-36.977778-110.933333-59.733333-139.377778-8.533333-8.533333-11.377778-19.911111-19.911111-25.6-31.288889-25.6-36.977778-51.2-39.822222-62.577778 0 0 0 0 0 0 0-17.066667 11.377778-22.755556 17.066667-28.444444l0 0c0 0 0 0 0 0 0 0 0-2.844444 0-5.688889 0 0 0-2.844444 0-2.844444-5.688889-34.133333-8.533333-93.866667-2.844444-128 2.844444-45.511111 34.133333-71.111111 34.133333-71.111111 0 0 0 0 0 0 5.688889-5.688889 8.533333-8.533333 14.222222-14.222222 0 0 0 0 0-2.844444 0 0 0-2.844444 0-2.844444C369.777778 130.844444 366.933333 125.155556 369.777778 113.777778c0-5.688889 5.688889-17.066667 19.911111-19.911111 5.688889-2.844444 11.377778-2.844444 17.066667-2.844444l0 0c17.066667 0 36.977778-2.844444 54.044444 0 142.222222 17.066667 184.888889 68.266667 187.733333 71.111111 0 0 0 0 0 0 11.377778 14.222222 14.222222 34.133333 19.911111 54.044444 2.844444 5.688889 2.844444 11.377778 2.844444 17.066667 5.688889 31.288889 5.688889 39.822222 2.844444 62.577778 0 11.377778-5.688889 45.511111-8.533333 59.733333 0 2.844444 0 5.688889 0 5.688889 0 0 0 2.844444 2.844444 2.844444 2.844444 2.844444 17.066667 5.688889 19.911111 17.066667 5.688889 17.066667-11.377778 51.2-31.288889 71.111111-5.688889 8.533333-22.755556 25.6-31.288889 34.133333-22.755556 28.444444-51.2 71.111111-56.888889 130.844444 0 8.533333-5.688889 45.511111-2.844444 65.422222 2.844444 17.066667 8.533333 25.6 19.911111 36.977778 0 0 25.6 19.911111 51.2 25.6 28.444444 8.533333 91.022222 19.911111 91.022222 19.911111 17.066667 2.844444 48.355556 8.533333 68.266667 17.066667 14.222222 5.688889 39.822222 22.755556 45.511111 28.444444 22.755556 14.222222 36.977778 34.133333 36.977778 34.133333C890.311111 861.866667 901.688889 898.844444 887.466667 898.844444zM389.688889 674.133333C389.688889 674.133333 389.688889 674.133333 389.688889 674.133333 389.688889 674.133333 389.688889 674.133333 389.688889 674.133333zM412.444444 711.111111C412.444444 711.111111 412.444444 711.111111 412.444444 711.111111 412.444444 711.111111 412.444444 711.111111 412.444444 711.111111zM603.022222 674.133333C603.022222 674.133333 603.022222 674.133333 603.022222 674.133333 603.022222 674.133333 603.022222 674.133333 603.022222 674.133333z" p-id="3331"></path></svg>