<?xml version="1.0" standalone="no"?><!DOCTYPE svg PUBLIC "-//W3C//DTD SVG 1.1//EN" "http://www.w3.org/Graphics/SVG/1.1/DTD/svg11.dtd"><svg t="1618311952026" class="icon" viewBox="0 0 1024 1024" version="1.1" xmlns="http://www.w3.org/2000/svg" p-id="5721" xmlns:xlink="http://www.w3.org/1999/xlink" width="200" height="200"><defs><style type="text/css"></style></defs><path d="M833.637179 376.112715c-17.582366-41.57163-42.748157-78.899982-74.79801-110.95086-32.050878-32.049854-69.380254-57.215645-110.95086-74.79801-43.050224-18.208003-88.76888-27.44-135.887285-27.44-47.114309 0-92.831941 9.23302-135.883189 27.44-41.570606 17.582366-78.899982 42.748157-110.95086 74.79801-32.051902 32.050878-57.217693 69.37923-74.801082 110.949836-18.209027 43.051248-27.442047 88.770928-27.442047 135.887285 0 47.117381 9.23302 92.837061 27.442047 135.887285 17.582366 41.570606 42.749181 78.899982 74.801082 110.949836 32.050878 32.050878 69.380254 57.215645 110.95086 74.79801 43.050224 18.208003 88.767856 27.441023 135.883189 27.441023 47.117381 0 92.837061-9.23302 135.887285-27.441023 41.57163-17.581342 78.901006-42.747133 110.95086-74.79801 32.049854-32.050878 57.215645-69.380254 74.79801-110.95086 18.206979-43.050224 27.44-88.76888 27.44-135.887285C861.076155 464.883643 851.844159 419.163963 833.637179 376.112715zM512.001024 814.533214c-70.414451 0-135.287246-24.181768-186.7503-64.675172 0.37272-1.653691 0.576488-3.372914 0.576488-5.140264 0-79.767274 51.62996-150.898494 126.680887-176.229142 18.058506 8.540825 38.226362 13.327824 59.492925 13.327824 21.268611 0 41.436468-4.788023 59.497021-13.329872 75.047856 25.33372 126.676792 96.465964 126.676792 176.23119 0 1.76735 0.202743 3.484526 0.576488 5.13924C647.287246 790.351445 582.415475 814.533214 512.001024 814.533214zM561.085426 521.24326c-2.659216 0.917465-5.135144 2.310047-7.300813 4.107092-12.572144 6.34239-26.76726 9.921119-41.783589 9.921119-15.007114 0-29.194038-3.574634-41.761062-9.909856-2.173861-1.80626-4.660028-3.203961-7.331532-4.122451-26.392492-16.448845-43.995336-45.732991-43.995336-79.0546 0-51.327892 41.759014-93.086906 93.08793-93.086906s93.086906 41.759014 93.086906 93.086906C605.086906 475.510269 587.48099 504.795439 561.085426 521.24326zM741.914184 708.406215c-5.957382-38.242746-21.349503-74.142678-45.398157-105.346743-21.689457-28.14141-49.80322-51.032993-81.46909-66.751756 22.710342-24.842221 36.583935-57.891457 36.583935-94.122127 0-76.99235-62.638521-139.629848-139.630872-139.629848-76.99235 0-139.630872 62.637497-139.630872 139.629848 0 36.231694 13.873593 69.28093 36.584959 94.123151-31.668942 15.719788-59.783729 38.610346-81.473186 66.750732-24.04763 31.203041-39.438728 67.102974-45.394061 105.347767-45.24866-52.890451-72.61903-121.507857-72.61903-196.406215 0-166.817954 135.71526-302.533214 302.533214-302.533214 166.81693 0 302.53219 135.71526 302.53219 302.533214C814.53219 586.898358 787.161819 655.515764 741.914184 708.406215z" p-id="5722"></path></svg>