<?xml version="1.0" standalone="no"?><!DOCTYPE svg PUBLIC "-//W3C//DTD SVG 1.1//EN" "http://www.w3.org/Graphics/SVG/1.1/DTD/svg11.dtd"><svg t="1618039780288" class="icon" viewBox="0 0 1024 1024" version="1.1" xmlns="http://www.w3.org/2000/svg" p-id="2181" xmlns:xlink="http://www.w3.org/1999/xlink" width="200" height="200"><defs><style type="text/css"></style></defs><path d="M503.883344 740.339443l0-205.48495 52.512821 0 0 205.48495-52.512821 0Z" fill="" p-id="2182"></path><path d="M632.88223 663.853378l-205.48495 0 0-52.512821 205.48495 0 0 52.512821Z" fill="" p-id="2183"></path><path d="M238.259799 444.09864h587.915273v27.397993h-587.915273zM238.259799 799.13097h587.915273v27.397993h-587.915273zM591.78524 39.692843h27.397993v187.505017h-27.397993zM651.147559 39.692843h27.397993v187.505017h-27.397993z" fill="" p-id="2184"></path><path d="M688.682809 63.928651a20.34301 20.34301 0 0 1 20.320179 20.320178v136.225106H351.276522V84.271661A20.34301 20.34301 0 0 1 371.5967 63.928651h317.086109m0-27.397993H371.5967a47.706756 47.706756 0 0 0-47.718172 47.718171v163.6231h412.522453V84.271661A47.718172 47.718172 0 0 0 688.682809 36.530658z" fill="" p-id="2185"></path><path d="M671.330747 253.579844v66.599955l22.112464 4.349432A142.617971 142.617971 0 0 1 808.320713 464.395987v388.526376A142.572308 142.572308 0 0 1 665.759822 995.460424h-271.240134a142.572308 142.572308 0 0 1-142.560892-142.538061V464.395987a142.583724 142.583724 0 0 1 114.877503-139.866756l22.112464-4.349432v-66.599955h282.381984m27.397993-27.397993H361.550769v71.463099a170.015964 170.015964 0 0 0-136.989966 166.751037v388.526376A169.970301 169.970301 0 0 0 394.519688 1022.858417h271.240134a169.970301 169.970301 0 0 0 169.958885-169.936054V464.395987a170.015964 170.015964 0 0 0-136.989967-166.751037v-71.463099z" fill="" p-id="2186"></path><path d="M277.735741 219.081204l504.796611 0 0 50.663456-504.796611 0 0-50.663456Z" fill="" p-id="2187"></path></svg>