<?xml version="1.0" standalone="no"?><!DOCTYPE svg PUBLIC "-//W3C//DTD SVG 1.1//EN" "http://www.w3.org/Graphics/SVG/1.1/DTD/svg11.dtd"><svg t="1617512615254" class="icon" viewBox="0 0 1024 1024" version="1.1" xmlns="http://www.w3.org/2000/svg" p-id="5692" xmlns:xlink="http://www.w3.org/1999/xlink" width="200" height="200"><defs><style type="text/css"></style></defs><path d="M514.56 424.8832c-146.688 0-266.6752 192.6144-266.6752 266.6752 0 146.688 119.9872 148.1472 266.6752 148.1472 146.6624 0 266.6496-1.4848 266.6496-148.1472 0-74.0608-119.9872-266.6752-266.6496-266.6752z m0 355.584c-114.0736 0-207.4112 0-207.4112-88.9088 0-44.4416 93.3376-207.4112 207.4112-207.4112s207.3856 162.9696 207.3856 207.4112c0 103.7056-93.312 88.8832-207.3856 88.8832zM207.872 365.6192a86.5024 86.5024 0 0 0-86.656 86.656 86.5024 86.5024 0 0 0 86.656 86.656 86.5024 86.5024 0 0 0 86.6816-86.656 86.5024 86.5024 0 0 0-86.6816-86.656z m0 119.9872a33.024 33.024 0 0 1-33.3312-33.3312c0-18.688 14.6688-33.3312 33.3312-33.3312 18.688 0 33.3568 14.6688 33.3568 33.3312A33.024 33.024 0 0 1 207.872 485.632z m606.6688-106.6752a86.5024 86.5024 0 0 0-86.656 86.6816 86.5024 86.5024 0 0 0 86.656 86.656 86.5024 86.5024 0 0 0 86.6816-86.656 86.5024 86.5024 0 0 0-86.6816-86.6816z m0 120.0128a33.024 33.024 0 0 1-33.3312-33.3312c0-18.688 14.6688-33.3312 33.3312-33.3312 18.688 0 33.3312 14.6688 33.3312 33.3312a33.024 33.024 0 0 1-33.3312 33.3312z m-160-280.0128a86.5024 86.5024 0 0 0-86.656 86.6816 86.5024 86.5024 0 0 0 86.656 86.656 86.5024 86.5024 0 0 0 86.6816-86.656 86.5024 86.5024 0 0 0-86.6816-86.6816z m0 120.0128a33.024 33.024 0 0 1-33.3312-33.3312c0-18.688 14.6688-33.3312 33.3312-33.3312 18.688 0 33.3312 14.6688 33.3312 33.3312a33.024 33.024 0 0 1-33.3312 33.3312z m-253.312-133.3248c-54.6816 0-100.0192 45.312-100.0192 99.9936 0 54.656 45.3376 99.9936 100.0192 99.9936 54.656 0 99.9936-45.312 99.9936-99.9936s-45.3376-99.9936-99.9936-99.9936z m0 146.6624c-25.344 0-46.6688-21.3504-46.6688-46.6688 0-25.344 21.3248-46.6688 46.6688-46.6688s46.6432 21.3248 46.6432 46.6688-21.3248 46.6688-46.6432 46.6688z" p-id="5693" fill="#1296db"></path></svg>