<?xml version="1.0" standalone="no"?><!DOCTYPE svg PUBLIC "-//W3C//DTD SVG 1.1//EN" "http://www.w3.org/Graphics/SVG/1.1/DTD/svg11.dtd"><svg t="1617512427416" class="icon" viewBox="0 0 1024 1024" version="1.1" xmlns="http://www.w3.org/2000/svg" p-id="4562" xmlns:xlink="http://www.w3.org/1999/xlink" width="200" height="200"><defs><style type="text/css"></style></defs><path d="M654.24 818.25h-292.4c-56.38 0-102.25-48.36-102.25-107.82V546.22h-88.94c-10.78 0-19.52-8.74-19.52-19.52V358.79c0-6.25 3-12.14 8.06-15.8l108.47-78.66 36.9-25.69c3.27-2.28 7.17-3.5 11.15-3.5H374c10.16 0 18.61 7.79 19.46 17.91 5.34 64.41 54.6 112.99 114.58 112.99s109.24-48.58 114.59-112.99c0.84-10.12 9.3-17.91 19.45-17.91h46.1c3.15 0 6.25 0.76 9.03 2.21l48.77 25.46c0.85 0.44 1.66 0.95 2.43 1.51l108.47 78.66c5.06 3.66 8.06 9.55 8.06 15.8V526.7c0 10.78-8.74 19.52-19.52 19.52h-88.94v164.21c0 59.46-45.86 107.82-102.24 107.82zM190.17 507.18h88.94c10.78 0 19.52 8.74 19.52 19.52v183.73c0 37.93 28.36 68.77 63.21 68.77h292.39c34.85 0 63.2-30.85 63.2-68.77V526.7c0-10.78 8.74-19.52 19.52-19.52h88.94V368.74l-99.24-71.96-43.26-22.59h-24.27c-14.17 75.76-76.4 130.9-151.09 130.9-74.7 0-136.93-55.14-151.09-130.9h-35.12l-31.56 21.96-100.1 72.59v138.44z" fill="#1296db" p-id="4563"></path><path d="M581.69 683.92H429.76c-10.75 0-19.47-8.72-19.47-19.47v-2.95c0-54.52 44.2-98.73 98.73-98.73h0.88c52.46 0 95 42.53 95 95v2.95c-0.01 12.81-10.39 23.2-23.21 23.2z" fill="#1296db" p-id="4564"></path><path d="M508.04 491.15m-35.87 0a35.87 35.87 0 1 0 71.74 0 35.87 35.87 0 1 0-71.74 0Z" fill="#1296db" p-id="4565"></path><path d="M612.99 528.42m-33.42 0a33.42 33.42 0 1 0 66.84 0 33.42 33.42 0 1 0-66.84 0Z" fill="#1296db" p-id="4566"></path><path d="M403.09 528.42m-33.42 0a33.42 33.42 0 1 0 66.84 0 33.42 33.42 0 1 0-66.84 0Z" fill="#1296db" p-id="4567"></path></svg>