<?xml version="1.0" standalone="no"?><!DOCTYPE svg PUBLIC "-//W3C//DTD SVG 1.1//EN" "http://www.w3.org/Graphics/SVG/1.1/DTD/svg11.dtd"><svg t="1617685029295" class="icon" viewBox="0 0 1024 1024" version="1.1" xmlns="http://www.w3.org/2000/svg" p-id="2499" xmlns:xlink="http://www.w3.org/1999/xlink" width="200" height="200"><defs><style type="text/css"></style></defs><path d="M510.84 864.97c-67.84 0-120.1-4.76-167.73-64.56-125.43-32.29-185.88-127.84-170.38-269.96 16.77-153.72 162.46-269.63 338.9-269.63 168.73 0 310.52 112.82 337.12 268.26C867.74 640 834.12 768.6 684.56 801.91c-42.51 58.16-103.96 63.06-173.72 63.06z m0.78-558.18c-150.42 0-279.21 100.44-293.2 228.66-13.36 122.41 34.81 197.16 143.15 222.15a22.979 22.979 0 0 1 13.3 8.72C410.06 813.81 444.95 819 510.84 819c74.85 0 112.92-7.26 140.74-50.22 3.41-5.28 8.84-8.93 15.01-10.1 39.72-7.54 166.99-45.85 136.85-221.85-22.83-133.29-145.55-230.04-291.82-230.04z" fill="#040000" p-id="2500"></path><path d="M835.64 585.88c-7.14 0-14.16-3.31-18.66-9.53-7.43-10.3-5.11-24.66 5.19-32.08 32.21-23.26 59.68-76.9 68.35-133.51 7.74-50.51-0.42-94.97-22.99-125.19-15.33-20.52-41.28-28.49-64.59-19.75-34.39 12.85-53.45 39.76-63.71 89.97-2.55 12.44-14.67 20.34-27.13 17.91-12.44-2.54-20.46-14.7-17.91-27.13 8.48-41.44 27.31-99.37 92.66-123.82 42.6-15.94 89.86-1.74 117.52 35.32 30 40.18 41.23 96.88 31.61 159.66-10.59 69.06-44.69 133.37-86.89 163.82a23.003 23.003 0 0 1-13.45 4.33zM177.47 585.88c-4.66 0-9.36-1.41-13.43-4.35-42.19-30.45-76.3-94.76-86.88-163.82-9.62-62.78 1.6-119.48 31.59-159.66 27.68-37.05 74.91-51.25 117.52-35.32 48.46 18.12 80.08 61.79 93.99 129.76 2.54 12.44-5.48 24.59-17.91 27.13-12.46 2.59-24.58-5.48-27.13-17.91-10.66-52.17-31.94-83.53-65.04-95.91-23.31-8.75-49.26-0.78-64.59 19.75-22.56 30.21-30.72 74.69-22.99 125.19 8.68 56.61 36.15 110.26 68.35 133.51 10.3 7.42 12.62 21.79 5.19 32.08-4.51 6.25-11.53 9.55-18.67 9.55zM431.99 529.41c0 23.26-18.86 42.12-42.12 42.12-23.26 0-42.12-18.86-42.12-42.12s42.12-42.12 42.12-42.12 42.12 18.86 42.12 42.12zM689.39 529.41c0 23.26-18.86 42.12-42.12 42.12s-42.12-18.86-42.12-42.12 42.12-42.12 42.12-42.12 42.12 18.86 42.12 42.12zM522.61 793.74c-34.41 0-56.28-22.85-63.88-36.62-6.13-11.12-2.09-25.1 9.03-31.23 11.04-6.09 24.86-2.15 31.06 8.74 0.99 1.63 9.16 13.69 24.74 13.12 17.81-0.52 26.21-13.35 26.29-13.47 6.48-10.94 20.58-14.5 31.5-8.04 10.92 6.49 14.51 20.59 8.02 31.5-7.65 12.88-29.83 34.94-64.46 35.95-0.78 0.04-1.54 0.05-2.3 0.05z" fill="#040000" p-id="2501"></path><path d="M495.7 857.18c-3.48 0-6.98-1.18-9.85-3.59-6.48-5.45-7.31-15.11-1.86-21.59 14.85-17.66 22.7-38.32 22.7-59.77v-4.06c0-8.47 6.86-15.32 15.32-15.32s15.32 6.85 15.32 15.32v4.06c0 28.75-10.34 56.24-29.9 79.49-3.03 3.6-7.36 5.46-11.73 5.46z" fill="#040000" p-id="2502"></path></svg>