<?xml version="1.0" standalone="no"?><!DOCTYPE svg PUBLIC "-//W3C//DTD SVG 1.1//EN" "http://www.w3.org/Graphics/SVG/1.1/DTD/svg11.dtd"><svg t="1617512386391" class="icon" viewBox="0 0 1024 1024" version="1.1" xmlns="http://www.w3.org/2000/svg" p-id="3515" xmlns:xlink="http://www.w3.org/1999/xlink" width="200" height="200"><defs><style type="text/css"></style></defs><path d="M407.466667 998.4c-21.333333 0-42.666667-6.4-61.866667-17.066667-38.4-23.466667-59.733333-66.133333-55.466667-108.8-40.533333 8.533333-85.333333-6.4-115.2-42.666666-29.866667-38.4-34.133333-91.733333-10.666666-132.266667 17.066667-27.733333 42.666667-46.933333 74.666666-55.466667 29.866667-6.4 59.733333-4.266667 87.466667 10.666667L648.533333 256c-38.4-51.2-27.733333-125.866667 23.466667-164.266667 38.4-29.866667 91.733333-32 134.4-6.4 38.4 23.466667 59.733333 66.133333 55.466667 108.8 40.533333-8.533333 85.333333 6.4 115.2 42.666667 29.866667 38.4 34.133333 91.733333 10.666666 132.266667-19.2 32-49.066667 51.2-83.2 57.6-34.133333 6.4-70.4-4.266667-98.133333-27.733334-10.666667-8.533333-10.666667-25.6-2.133333-36.266666s25.6-10.666667 36.266666-2.133334c14.933333 12.8 36.266667 19.2 55.466667 17.066667 21.333333-4.266667 38.4-14.933333 49.066667-34.133333 12.8-23.466667 10.666667-55.466667-6.4-76.8-23.466667-29.866667-64-34.133333-93.866667-12.8-10.666667 8.533333-25.6 6.4-34.133333-2.133334-8.533333-8.533333-12.8-23.466667-6.4-34.133333 17.066667-29.866667 6.4-70.4-25.6-89.6-23.466667-14.933333-55.466667-12.8-76.8 4.266667-29.866667 23.466667-36.266667 66.133333-12.8 96 12.8 17.066667 12.8 44.8-2.133334 61.866666L362.666667 684.8c-17.066667 17.066667-40.533333 21.333333-59.733334 10.666667-14.933333-8.533333-34.133333-10.666667-51.2-6.4-17.066667 4.266667-34.133333 17.066667-42.666666 32-12.8 23.466667-10.666667 55.466667 6.4 76.8 23.466667 29.866667 64 34.133333 93.866666 12.8 10.666667-8.533333 23.466667-6.4 34.133334 2.133333s12.8 23.466667 6.4 34.133333c-19.2 32-8.533333 72.533333 23.466666 91.733334 23.466667 14.933333 55.466667 12.8 76.8-4.266667 29.866667-23.466667 36.266667-66.133333 12.8-96-12.8-17.066667-12.8-44.8 2.133334-61.866667l251.733333-309.333333c8.533333-10.666667 25.6-12.8 36.266667-4.266667 10.666667 8.533333 12.8 25.6 4.266666 36.266667l-256 309.333333c38.4 51.2 27.733333 125.866667-23.466666 164.266667-21.333333 17.066667-44.8 25.6-70.4 25.6z m439.466666-753.066667zM232.533333 465.066667c-117.333333 0-211.2-93.866667-211.2-211.2S117.333333 42.666667 232.533333 42.666667c117.333333 0 211.2 93.866667 211.2 211.2s-93.866667 211.2-211.2 211.2z m0-371.2c-89.6 0-160 72.533333-160 160s72.533333 160 160 160 160-72.533333 160-160-70.4-160-160-160z" fill="#1296db" p-id="3516"></path><path d="M115.2 413.866667c-4.266667 0-10.666667-2.133333-14.933333-4.266667-10.666667-8.533333-14.933333-23.466667-6.4-34.133333 89.6-134.4 4.266667-221.866667 2.133333-221.866667-8.533333-10.666667-8.533333-25.6 0-36.266667 10.666667-10.666667 25.6-10.666667 36.266667 0 2.133333 2.133333 115.2 117.333333 2.133333 285.866667-4.266667 6.4-10.666667 10.666667-19.2 10.666667zM352 413.866667c-8.533333 0-17.066667-4.266667-21.333333-10.666667-110.933333-168.533333 2.133333-283.733333 2.133333-285.866667 10.666667-10.666667 25.6-10.666667 36.266667 0s10.666667 25.6 0 36.266667c-4.266667 4.266667-85.333333 89.6 2.133333 221.866667 8.533333 10.666667 4.266667 27.733333-6.4 34.133333-4.266667 4.266667-8.533333 4.266667-12.8 4.266667z" fill="#1296db" p-id="3517"></path></svg>