<?xml version="1.0" standalone="no"?><!DOCTYPE svg PUBLIC "-//W3C//DTD SVG 1.1//EN" "http://www.w3.org/Graphics/SVG/1.1/DTD/svg11.dtd"><svg t="1618041921143" class="icon" viewBox="0 0 1024 1024" version="1.1" xmlns="http://www.w3.org/2000/svg" p-id="2337" xmlns:xlink="http://www.w3.org/1999/xlink" width="200" height="200"><defs><style type="text/css"></style></defs><path d="M947.4 265L791.7 109.2l-0.8-0.8c-5.6-5.7-17.2-17.5-43.6-17.5H628.5c-7.9 0-14.5 6.2-15 14.1-3.2 53.8-47.9 95.9-101.8 95.9s-98.6-42.1-101.8-95.9c-0.5-7.9-7-14.1-15-14.1H277.1c-26.1 0-38.7 12.6-44 18L77 265c-13.6 13.6-13.6 35.9 0 49.5l79.2 79.2c13.6 13.6 35.9 13.6 49.5 0l36.4-36.4v305.5c0 72.2 28.1 140 79.1 191s118.9 79.1 191 79.1 140-28.1 191-79.1 79.1-118.9 79.1-191V357.3l36.4 36.4c13.6 13.6 35.9 13.6 49.5 0l79.2-79.2c13.6-13.7 13.6-35.9 0-49.5z m-435.7-34.1c65 0 119.6-47.3 130.2-110h16.7c-10.7 71.2-72.2 126-146.4 126s-135.7-54.8-146.4-126h15.7c10.5 62.8 65.2 110 130.2 110zM177.4 372.4l-79.2-79.2c-1.3-1.3-1.5-2.8-1.5-3.5s0.2-2.3 1.5-3.5l16.8-16.8 86.3 86.3-16.8 16.8c-2 1.9-5.2 1.9-7.1-0.1z m600.5-61.9c-4.3-4.3-10.7-5.6-16.3-3.3-5.6 2.3-9.3 7.8-9.3 13.9v341.8c0 64.1-25 124.4-70.3 169.8S576.3 903 512.2 903c-64.1 0-124.4-25-169.8-70.3-45.4-45.4-70.3-105.7-70.3-169.9V321.1c0-6.1-3.7-11.5-9.3-13.9-1.9-0.8-3.8-1.1-5.7-1.1-3.9 0-7.7 1.5-10.6 4.4l-31 31-86.3-86.3 124.7-124.7 0.4-0.4c4.1-4.1 9.1-9.1 22.8-9.1h68.6c10.8 82.3 81.4 146 166.6 146S668 203.3 678.9 121h68.6c13.8 0 18.2 4.5 22.2 8.5l1 1L896 255.8l-86.3 86.3-31.8-31.6z m148.3-17.3L847 372.4c-1.9 2-5.1 1.9-7.1 0l-16.2-16.2 86.3-86.3 16.2 16.2c1.9 2 1.9 5.2 0 7.1z" p-id="2338"></path><path d="M548.2 470.7c0.9 0.1 1.8 0.1 2.6 0.1h1.2c19-0.8 35.9-21.6 38.6-47.3 1.7-15.5-2.4-31-10.9-41.4-5.8-7.2-12.9-11.2-21.1-12-1.3-0.1-4.2-0.2-4.2-0.2-18.4 0.8-32.1 20.1-34.8 46-1.8 16.9 0.6 33.2 9.1 43.7 5.3 6.6 12.1 10.4 19.5 11.1z m-8.6-52.6c1.8-16.8 9.1-27.3 15.3-28.1 0.8 0 1.6 0.1 2 0.1 1.9 0.2 4.4 0.9 7.5 4.7 5.1 6.3 7.6 16.5 6.5 26.7-1.9 17.8-12.7 29.1-19.6 29.4h-1c-0.8-0.1-3.1-0.3-5.9-3.8-4.4-5.3-6.2-16.2-4.8-29zM512.2 491.2c-44.1 0-88.2 52.4-88.2 102.8 0 15 7.5 27.1 14.9 32.1 9.1 6.1 15.6 8.5 29 8.5 15.9 0 20.2-5.6 27.7-10.5 5.4-3.5 10-6.6 16.6-6.6 6.6 0 11.3 3.1 16.6 6.6 7.4 4.9 11.7 10.5 27.7 10.5 13.4 0 19.8-2.4 29-8.5 7.4-5 14.9-17 14.9-32.1 0-50.4-44.1-102.8-88.2-102.8z m62.1 118.2c-5.8 3.9-8.5 5.1-17.8 5.1-6.6 0-7.8-0.9-12.2-4.1-1.3-0.9-2.8-2-4.5-3.1-6.3-4.2-15-9.9-27.6-9.9-12.6 0-21.3 5.7-27.7 9.9-1.7 1.1-3.1 2.2-4.4 3.1-4.4 3.2-5.6 4.1-12.2 4.1-9.4 0-12-1.3-17.8-5.1-1.6-1.1-6.1-6.7-6.1-15.4 0-19.1 8.5-40.5 22.8-57.3 13.6-16 30.6-25.5 45.4-25.5s31.8 9.5 45.4 25.5c14.3 16.7 22.8 38.1 22.8 57.3 0 8.6-4.5 14.3-6.1 15.4zM626.9 443.7c-3-1.4-6.2-2.1-9.4-2.1-13.8 0-27.8 12.9-34.9 32-8.7 23.7-3.7 46.9 11.8 54 3.1 1.4 6.5 2.2 9.9 2.2 14.1 0 28.3-11.8 35.5-29.3 5.4-13.3 6.1-28.2 1.7-39.9-2.9-8.1-8-14-14.6-16.9z m-5.5 49.2c-4.8 11.7-12.8 16.9-17 16.9-0.6 0-1.1-0.1-1.6-0.3-3.5-1.6-7.2-13.3-1.4-28.9 4.9-13.2 13-18.9 16.1-18.9 0.2 0 0.6 0 1.2 0.3 2.2 1 3.5 4 4.2 5.7 2.6 6.9 2 16.6-1.5 25.2zM441.8 473.6c-7.1-19.1-21.1-32-34.9-32-3.2 0-6.4 0.7-9.4 2.1-6.6 3-11.7 8.8-14.7 16.9-4.4 11.7-3.7 26.6 1.7 39.9 7.2 17.6 21.5 29.3 35.5 29.3 3.5 0 6.8-0.7 9.9-2.2 15.5-7 20.6-30.3 11.9-54z m-20.2 35.9c-0.5 0.2-1 0.3-1.6 0.3-4.2 0-12.2-5.3-17-16.9-3.5-8.6-4.1-18.3-1.5-25.3 0.6-1.7 2-4.7 4.2-5.7 0.6-0.3 1-0.3 1.2-0.3 3.1 0 11.2 5.7 16.1 18.9 5.8 15.7 2.1 27.4-1.4 29zM472.5 471h1.2c0.9 0 1.8 0 2.7-0.1 7.4-0.7 14.2-4.5 19.4-11 8.5-10.5 10.9-26.9 9.1-43.7-2.7-26-16.4-45.4-34.8-46.2 0 0-2.6 0-4 0.1-8.1 0.8-15.5 5-21.3 12.2-8.5 10.4-12.5 25.9-10.9 41.4 2.6 25.7 19.6 46.4 38.6 47.3z m-12.3-76.1c2.4-2.9 5-4.6 7.7-4.9h1.6c3.2 0.3 6 3.2 7.7 5.5 4 5.4 6.8 13.5 7.7 22.7 1.4 12.8-0.4 23.7-4.7 29-2.8 3.5-5.1 3.7-5.9 3.8h-1c-6.9-0.3-17.7-11.6-19.6-29.4-1.1-10.2 1.4-20.4 6.5-26.7z" p-id="2339"></path></svg>