<?xml version="1.0" standalone="no"?><!DOCTYPE svg PUBLIC "-//W3C//DTD SVG 1.1//EN" "http://www.w3.org/Graphics/SVG/1.1/DTD/svg11.dtd"><svg t="1617859240326" class="icon" viewBox="0 0 1024 1024" version="1.1" xmlns="http://www.w3.org/2000/svg" p-id="5383" xmlns:xlink="http://www.w3.org/1999/xlink" width="200" height="200"><defs><style type="text/css"></style></defs><path d="M286.72 61.44h450.56a122.88 122.88 0 0 1 122.88 122.88v719.6672a40.96 40.96 0 0 1-64.59392 33.44384l-236.19584-166.78912a81.92 81.92 0 0 0-94.49472-0.02048l-236.46208 166.85056A40.96 40.96 0 0 1 163.84 904.00768V184.32a122.88 122.88 0 0 1 122.88-122.88z" fill="#131415" p-id="5384"></path><path d="M512 204.8a30.72 30.72 0 0 1 30.72 30.72v143.36h143.36a30.72 30.72 0 0 1 0 61.44h-143.36v143.36a30.72 30.72 0 0 1-61.44 0v-143.36h-143.36a30.72 30.72 0 0 1 0-61.44h143.36v-143.36A30.72 30.72 0 0 1 512 204.8z" fill="#FFFFFF" p-id="5385"></path></svg>